<svg width="122" height="92" viewBox="0 0 122 92" fill="none" xmlns="http://www.w3.org/2000/svg">
<path d="M20.096 66.576C16.768 66.576 13.76 65.8293 11.072 64.336C8.384 62.8 6.272 60.6667 4.736 57.936C3.2 55.1627 2.432 51.9627 2.432 48.336C2.432 44.752 3.22133 41.5733 4.8 38.8C6.37867 36.0267 8.53333 33.8933 11.264 32.4C13.9947 30.9067 17.0453 30.16 20.416 30.16C23.7867 30.16 26.8373 30.9067 29.568 32.4C32.2987 33.8933 34.4533 36.0267 36.032 38.8C37.6107 41.5733 38.4 44.752 38.4 48.336C38.4 51.92 37.5893 55.0987 35.968 57.872C34.3467 60.6453 32.128 62.8 29.312 64.336C26.5387 65.8293 23.4667 66.576 20.096 66.576ZM20.096 60.24C21.9733 60.24 23.7227 59.792 25.344 58.896C27.008 58 28.352 56.656 29.376 54.864C30.4 53.072 30.912 50.896 30.912 48.336C30.912 45.776 30.4213 43.6213 29.44 41.872C28.4587 40.08 27.1573 38.736 25.536 37.84C23.9147 36.944 22.1653 36.496 20.288 36.496C18.4107 36.496 16.6613 36.944 15.04 37.84C13.4613 38.736 12.2027 40.08 11.264 41.872C10.3253 43.6213 9.856 45.776 9.856 48.336C9.856 52.1333 10.816 55.0773 12.736 57.168C14.6987 59.216 17.152 60.24 20.096 60.24ZM63.4045 30.16C66.1778 30.16 68.6525 30.736 70.8285 31.888C73.0472 33.04 74.7752 34.7467 76.0125 37.008C77.2498 39.2693 77.8685 42 77.8685 45.2V66H70.6365V46.288C70.6365 43.1307 69.8472 40.72 68.2685 39.056C66.6898 37.3493 64.5352 36.496 61.8045 36.496C59.0738 36.496 56.8978 37.3493 55.2765 39.056C53.6978 40.72 52.9085 43.1307 52.9085 46.288V66H45.6125V30.736H52.9085V34.768C54.1032 33.3173 55.6178 32.1867 57.4525 31.376C59.3298 30.5653 61.3138 30.16 63.4045 30.16ZM119.495 47.504C119.495 48.8267 119.41 50.0213 119.239 51.088H92.295C92.5083 53.904 93.5537 56.1653 95.431 57.872C97.3083 59.5787 99.6123 60.432 102.343 60.432C106.268 60.432 109.042 58.7893 110.663 55.504H118.535C117.468 58.7467 115.527 61.4133 112.711 63.504C109.938 65.552 106.482 66.576 102.343 66.576C98.9723 66.576 95.943 65.8293 93.255 64.336C90.6097 62.8 88.519 60.6667 86.983 57.936C85.4897 55.1627 84.743 51.9627 84.743 48.336C84.743 44.7093 85.4683 41.5307 86.919 38.8C88.4123 36.0267 90.4817 33.8933 93.127 32.4C95.815 30.9067 98.887 30.16 102.343 30.16C105.671 30.16 108.636 30.8853 111.239 32.336C113.842 33.7867 115.868 35.8347 117.319 38.48C118.77 41.0827 119.495 44.0907 119.495 47.504ZM111.879 45.2C111.836 42.512 110.876 40.3573 108.999 38.736C107.122 37.1147 104.796 36.304 102.023 36.304C99.5057 36.304 97.351 37.1147 95.559 38.736C93.767 40.3147 92.7003 42.4693 92.359 45.2H111.879Z" fill="white"/>
<path d="M3.74 77.48C3.74 76.3467 3.96667 75.3533 4.42 74.5C4.88667 73.6333 5.52667 72.9667 6.34 72.5C7.15333 72.0333 8.08667 71.8 9.14 71.8C10.4733 71.8 11.5733 72.12 12.44 72.76C13.32 73.3867 13.9133 74.2867 14.22 75.46H11.76C11.56 74.9133 11.24 74.4867 10.8 74.18C10.36 73.8733 9.80667 73.72 9.14 73.72C8.20667 73.72 7.46 74.0533 6.9 74.72C6.35333 75.3733 6.08 76.2933 6.08 77.48C6.08 78.6667 6.35333 79.5933 6.9 80.26C7.46 80.9267 8.20667 81.26 9.14 81.26C10.46 81.26 11.3333 80.68 11.76 79.52H14.22C13.9 80.64 13.3 81.5333 12.42 82.2C11.54 82.8533 10.4467 83.18 9.14 83.18C8.08667 83.18 7.15333 82.9467 6.34 82.48C5.52667 82 4.88667 81.3333 4.42 80.48C3.96667 79.6133 3.74 78.6133 3.74 77.48ZM21.2722 83.18C20.2322 83.18 19.2922 82.9467 18.4522 82.48C17.6122 82 16.9522 81.3333 16.4722 80.48C15.9922 79.6133 15.7522 78.6133 15.7522 77.48C15.7522 76.36 15.9989 75.3667 16.4922 74.5C16.9855 73.6333 17.6589 72.9667 18.5122 72.5C19.3655 72.0333 20.3189 71.8 21.3722 71.8C22.4255 71.8 23.3789 72.0333 24.2322 72.5C25.0855 72.9667 25.7589 73.6333 26.2522 74.5C26.7455 75.3667 26.9922 76.36 26.9922 77.48C26.9922 78.6 26.7389 79.5933 26.2322 80.46C25.7255 81.3267 25.0322 82 24.1522 82.48C23.2855 82.9467 22.3255 83.18 21.2722 83.18ZM21.2722 81.2C21.8589 81.2 22.4055 81.06 22.9122 80.78C23.4322 80.5 23.8522 80.08 24.1722 79.52C24.4922 78.96 24.6522 78.28 24.6522 77.48C24.6522 76.68 24.4989 76.0067 24.1922 75.46C23.8855 74.9 23.4789 74.48 22.9722 74.2C22.4655 73.92 21.9189 73.78 21.3322 73.78C20.7455 73.78 20.1989 73.92 19.6922 74.2C19.1989 74.48 18.8055 74.9 18.5122 75.46C18.2189 76.0067 18.0722 76.68 18.0722 77.48C18.0722 78.6667 18.3722 79.5867 18.9722 80.24C19.5855 80.88 20.3522 81.2 21.2722 81.2ZM42.5861 71.8C43.4528 71.8 44.2261 71.98 44.9061 72.34C45.5994 72.7 46.1394 73.2333 46.5261 73.94C46.9261 74.6467 47.1261 75.5 47.1261 76.5V83H44.8661V76.84C44.8661 75.8533 44.6194 75.1 44.1261 74.58C43.6328 74.0467 42.9594 73.78 42.1061 73.78C41.2528 73.78 40.5728 74.0467 40.0661 74.58C39.5728 75.1 39.3261 75.8533 39.3261 76.84V83H37.0661V76.84C37.0661 75.8533 36.8194 75.1 36.3261 74.58C35.8328 74.0467 35.1594 73.78 34.3061 73.78C33.4528 73.78 32.7728 74.0467 32.2661 74.58C31.7728 75.1 31.5261 75.8533 31.5261 76.84V83H29.2461V71.98H31.5261V73.24C31.8994 72.7867 32.3728 72.4333 32.9461 72.18C33.5194 71.9267 34.1328 71.8 34.7861 71.8C35.6661 71.8 36.4528 71.9867 37.1461 72.36C37.8394 72.7333 38.3728 73.2733 38.7461 73.98C39.0794 73.3133 39.5994 72.7867 40.3061 72.4C41.0128 72 41.7728 71.8 42.5861 71.8ZM63.3673 71.8C64.234 71.8 65.0073 71.98 65.6873 72.34C66.3807 72.7 66.9207 73.2333 67.3073 73.94C67.7073 74.6467 67.9073 75.5 67.9073 76.5V83H65.6473V76.84C65.6473 75.8533 65.4007 75.1 64.9073 74.58C64.414 74.0467 63.7407 73.78 62.8873 73.78C62.034 73.78 61.354 74.0467 60.8473 74.58C60.354 75.1 60.1073 75.8533 60.1073 76.84V83H57.8473V76.84C57.8473 75.8533 57.6007 75.1 57.1073 74.58C56.614 74.0467 55.9407 73.78 55.0873 73.78C54.234 73.78 53.554 74.0467 53.0473 74.58C52.554 75.1 52.3073 75.8533 52.3073 76.84V83H50.0273V71.98H52.3073V73.24C52.6807 72.7867 53.154 72.4333 53.7273 72.18C54.3007 71.9267 54.914 71.8 55.5673 71.8C56.4473 71.8 57.234 71.9867 57.9273 72.36C58.6207 72.7333 59.154 73.2733 59.5273 73.98C59.8607 73.3133 60.3807 72.7867 61.0873 72.4C61.794 72 62.554 71.8 63.3673 71.8ZM80.7886 71.98V83H78.5086V81.7C78.1486 82.1533 77.6753 82.5133 77.0886 82.78C76.5153 83.0333 75.9019 83.16 75.2486 83.16C74.3819 83.16 73.6019 82.98 72.9086 82.62C72.2286 82.26 71.6886 81.7267 71.2886 81.02C70.9019 80.3133 70.7086 79.46 70.7086 78.46V71.98H72.9686V78.12C72.9686 79.1067 73.2153 79.8667 73.7086 80.4C74.2019 80.92 74.8753 81.18 75.7286 81.18C76.5819 81.18 77.2553 80.92 77.7486 80.4C78.2553 79.8667 78.5086 79.1067 78.5086 78.12V71.98H80.7886ZM89.3569 71.8C90.2235 71.8 90.9969 71.98 91.6769 72.34C92.3702 72.7 92.9102 73.2333 93.2969 73.94C93.6835 74.6467 93.8769 75.5 93.8769 76.5V83H91.6169V76.84C91.6169 75.8533 91.3702 75.1 90.8769 74.58C90.3835 74.0467 89.7102 73.78 88.8569 73.78C88.0035 73.78 87.3235 74.0467 86.8169 74.58C86.3235 75.1 86.0769 75.8533 86.0769 76.84V83H83.7969V71.98H86.0769V73.24C86.4502 72.7867 86.9235 72.4333 87.4969 72.18C88.0835 71.9267 88.7035 71.8 89.3569 71.8ZM97.9452 70.52C97.5318 70.52 97.1852 70.38 96.9052 70.1C96.6252 69.82 96.4852 69.4733 96.4852 69.06C96.4852 68.6467 96.6252 68.3 96.9052 68.02C97.1852 67.74 97.5318 67.6 97.9452 67.6C98.3452 67.6 98.6852 67.74 98.9652 68.02C99.2452 68.3 99.3852 68.6467 99.3852 69.06C99.3852 69.4733 99.2452 69.82 98.9652 70.1C98.6852 70.38 98.3452 70.52 97.9452 70.52ZM99.0652 71.98V83H96.7852V71.98H99.0652ZM104.719 73.84V79.94C104.719 80.3533 104.812 80.6533 104.999 80.84C105.199 81.0133 105.532 81.1 105.999 81.1H107.399V83H105.599C104.572 83 103.785 82.76 103.239 82.28C102.692 81.8 102.419 81.02 102.419 79.94V73.84H101.119V71.98H102.419V69.24H104.719V71.98H107.399V73.84H104.719ZM119.42 71.98L112.66 88.18H110.3L112.54 82.82L108.2 71.98H110.74L113.84 80.38L117.06 71.98H119.42Z" fill="white"/>
</svg>
